<svg width="26" height="26" viewBox="0 0 26 26" fill="none" xmlns="http://www.w3.org/2000/svg">
<path d="M13 0C20.1805 0 26 5.81953 26 13C26 20.1805 20.1805 26 13 26C10.2426 26 7.67812 25.1367 5.5707 23.6691C4.83437 23.1105 4.65359 22.1406 5.16953 21.4043C5.68242 20.668 6.69297 20.4902 7.4293 21.0031C9.00859 22.1051 10.9281 22.75 13 22.75C18.3828 22.75 22.75 18.3828 22.75 13C22.75 7.57148 18.3828 3.25 13 3.25C10.2629 3.25 7.87109 4.33977 6.10391 6.10391L7.66797 7.66797C8.43477 8.43477 7.89141 9.75 6.80977 9.75H1.21875C0.545898 9.75 0 9.20664 0 8.53125V2.94227C0 1.85656 1.3127 1.3127 2.08051 2.08051L3.80758 3.80758C6.15977 1.45691 9.40977 0 12.9543 0H13ZM13 6.5C13.6754 6.5 14.2188 7.04336 14.2188 7.71875V12.4973L17.4738 15.793C17.9918 16.2703 17.9918 17.0422 17.4738 17.4738C17.0422 17.9918 16.2703 17.9918 15.793 17.4738L12.1367 13.8176C11.9082 13.6348 11.7812 13.325 11.7812 13V7.71875C11.7812 7.04336 12.3246 6.5 13 6.5Z" fill="black"/>
</svg>
