<svg width="29" height="23" viewBox="0 0 29 23" fill="none" xmlns="http://www.w3.org/2000/svg">
<path d="M14.4328 15.0196C18.9557 15.0196 22.8177 15.7948 22.8177 18.8968C22.8177 21.9976 18.9805 22.801 14.4328 22.801C9.90989 22.801 6.04794 22.0258 6.04794 18.9251C6.04794 15.823 9.8851 15.0196 14.4328 15.0196ZM21.6644 13.1517C23.3936 13.1171 25.2525 13.3738 25.9395 13.556C27.3948 13.8653 28.352 14.4967 28.7486 15.4144C29.0838 16.1678 29.0838 17.0418 28.7486 17.7939C28.1419 19.2172 26.1862 19.6741 25.426 19.7921C25.2691 19.8178 25.1428 19.6702 25.1593 19.4995C25.5476 15.5556 22.4588 13.6856 21.6597 13.2557C21.6255 13.2364 21.6184 13.2069 21.6219 13.1889C21.6243 13.1761 21.6384 13.1556 21.6644 13.1517ZM7.01086 13.1491L7.33647 13.1522C7.36244 13.1561 7.37542 13.1766 7.37778 13.1882C7.38132 13.2074 7.37424 13.2357 7.34119 13.2562C6.54095 13.6861 3.45209 15.5561 3.84041 19.4987C3.85694 19.6707 3.73183 19.817 3.57484 19.7926C2.81473 19.6746 0.858966 19.2177 0.25229 17.7944C-0.0840966 17.041 -0.0840966 16.1683 0.25229 15.4149C0.648872 14.4973 1.60492 13.8658 3.06023 13.5552C3.74835 13.3743 5.60615 13.1176 7.33647 13.1522L7.01086 13.1491ZM14.4328 0C17.5122 0 19.9814 2.68235 19.9814 6.03207C19.9814 9.38052 17.5122 12.0654 14.4328 12.0654C11.3534 12.0654 8.8842 9.38052 8.8842 6.03207C8.8842 2.68235 11.3534 0 14.4328 0ZM21.9654 1.00594C24.9398 1.00594 27.2756 4.04893 26.4801 7.43845C25.943 9.72037 23.9991 11.2361 21.8332 11.1745C21.616 11.1681 21.4024 11.1462 21.1958 11.1077C21.0459 11.0795 20.9704 10.896 21.0554 10.7599C21.8816 9.43801 22.3525 7.84786 22.3525 6.14091C22.3525 4.35952 21.8379 2.69878 20.9444 1.33707C20.9161 1.29471 20.8949 1.22926 20.9232 1.18049C20.9468 1.1407 20.9905 1.12017 21.0318 1.1099C21.3327 1.04316 21.642 1.00594 21.9654 1.00594ZM7.03372 1.00582C7.35713 1.00582 7.66637 1.04304 7.96853 1.10977C8.00866 1.12004 8.05351 1.14186 8.07711 1.18036C8.10426 1.22913 8.08419 1.29459 8.05587 1.33694C7.16238 2.69865 6.64776 4.35939 6.64776 6.14078C6.64776 7.84773 7.11871 9.43789 7.94492 10.7598C8.0299 10.8959 7.95436 11.0794 7.80446 11.1076C7.59673 11.1474 7.38427 11.1679 7.1671 11.1744C5.00124 11.236 3.05728 9.72024 2.52024 7.43832C1.72354 4.04881 4.05936 1.00582 7.03372 1.00582Z" fill="black"/>
</svg>
